Coordinates
version=1
nRows=8
nColumns=36
inDegrees=yes

Units are S.I. units (second, meters, Newtons, ...)
If the header above contains a line with 'inDegrees', this indicates whether rotational values are in degrees (yes) or radians (no).

endheader
time	pelvis_tilt	pelvis_list	pelvis_rotation	pelvis_tx	pelvis_ty	pelvis_tz	hip_flexion_r	hip_adduction_r	hip_rotation_r	knee_angle_r	knee_angle_r_beta	ankle_angle_r	subtalar_angle_r	mtp_angle_r	hip_flexion_l	hip_adduction_l	hip_rotation_l	knee_angle_l	knee_angle_l_beta	ankle_angle_l	subtalar_angle_l	mtp_angle_l	lumbar_extension	lumbar_bending	lumbar_rotation	arm_flex_r	arm_add_r	arm_rot_r	elbow_flex_r	pro_sup_r	arm_flex_l	arm_add_l	arm_rot_l	elbow_flex_l	pro_sup_l
      2.97083330	     -4.72220017	     -6.31922394	      5.65305042	      0.30442084	      1.35042538	     -0.08085304	     10.74032687	     -2.91061288	    -21.69484605	     19.83327046	      0.34615587	     -3.10215334	    -12.71240055	     -7.49999987	     13.54110973	    -10.25654268	      9.54602227	     19.77302032	      0.34510431	    -16.66734603	      0.36699485	     -7.49999987	      6.35246393	     -3.29796358	    -13.34863739	    257.15986350	   -116.82985635	    243.71789356	     36.69563462	     40.73216533	    314.23815232	   -130.28956614	    271.89933869	     31.18477905	     40.21097945
      2.97500000	     -4.72556966	     -6.42699207	      5.76556117	      0.30450546	      1.34763484	     -0.08127821	     10.68534694	     -2.90818351	    -21.98898804	     19.90431479	      0.34739583	     -2.38532976	    -12.75933435	     -7.49999987	     13.78287190	    -10.49511001	      9.69443369	     19.90351452	      0.34738186	    -16.03413027	      0.12067671	     -7.49999987	      6.66139804	     -3.36819467	    -13.55100589	    256.25495516	   -118.22483996	    241.58380982	     33.30444131	     41.15783284	    314.24688297	   -130.61239751	    272.74703480	     29.14914255	     40.87339813
      2.97916670	     -4.63767091	     -6.63999695	      6.09779161	      0.30430632	      1.34726294	     -0.08076028	     10.35389202	     -2.67107641	    -22.46323681	     19.53486252	      0.34094767	     -2.22360300	    -12.82514551	     -7.49999987	     13.85222197	    -10.88068762	      9.35345938	     19.76925088	      0.34503852	    -15.65776087	     -0.59427929	     -7.49999987	      6.45853068	     -3.25483724	    -13.53874153	    255.52068126	   -117.51609748	    240.80675911	     33.18181675	     41.84105214	    314.35405894	   -130.50221922	    272.09523507	     29.29359386	     41.55259137
      2.98333330	     -4.72259169	     -6.74478343	      6.30281113	      0.30450281	      1.34144942	     -0.08114849	     10.24541490	     -2.57698174	    -22.87504877	     19.28555244	      0.33659639	     -1.44606040	    -12.39751111	     -7.49999987	     14.05779357	    -11.05598809	      9.07640565	     19.63478394	      0.34269163	    -15.34716607	     -2.02566124	     -7.49999987	      6.66608025	     -3.55286907	    -12.37174328	    252.46429939	   -116.70321478	    234.48338230	     31.06532910	     42.16318291	    312.14972756	   -132.82638730	    268.02354572	     25.99433160	     42.26496733
      2.98750000	     -4.61115509	     -6.81693458	      6.08743238	      0.30392641	      1.33533883	     -0.08076188	     10.14251760	     -2.36618262	    -22.77388747	     19.20482149	      0.33518737	     -0.62723621	    -12.91552862	     -7.49999987	     14.02247433	    -11.24347581	      8.56974809	     19.75811666	      0.34484419	    -14.22891455	     -2.06758459	     -7.49999987	      6.78875600	     -3.06022534	    -14.54106829	    257.23308884	   -121.60232848	    240.52733803	     25.13420543	     40.56014286	    315.82830963	   -129.49895143	    277.50695960	     26.93384703	     35.91139653
      2.99166670	     -4.70538406	     -6.78180174	      5.76828372	      0.30437644	      1.33329496	     -0.08012107	     10.16247507	     -2.28850753	    -22.61550578	     18.97430717	      0.33116413	      0.15149554	    -12.87966065	     -7.49999987	     14.06751501	    -11.39187510	      8.19936588	     19.85527120	      0.34653986	    -13.89394667	     -2.79465730	     -7.49999987	      7.11253477	     -3.08489773	    -13.85297866	    257.35693737	   -121.56562397	    239.19007062	     23.62266217	     41.36947529	    315.25782503	   -130.01303124	    277.19497779	     25.55990037	     37.40444824
      2.99583330	     -4.76194511	     -6.73849121	      5.54675576	      0.30384018	      1.33523244	     -0.08037945	     10.10049412	     -2.20214946	    -22.72629558	     18.52569800	      0.32333443	      0.73954071	    -12.67914712	     -7.49999987	     14.01381728	    -11.51112495	      7.77254354	     19.77315645	      0.34510668	    -13.48948050	     -3.30185200	     -7.49999987	      7.46916046	     -3.11012207	    -13.50587633	    257.70874332	   -122.27798624	    237.90743593	     21.02409107	     41.53712457	    314.87627958	   -129.91440773	    277.57073559	     24.79239467	     37.97860305
      3.00000000	     -4.70953722	     -6.67574416	      5.50031567	      0.30423698	      1.33246177	     -0.07977379	      9.89093995	     -2.20686920	    -22.55764270	     18.30799082	      0.31953472	      1.40066378	    -12.37726643	     -7.49999987	     13.90064269	    -11.50373493	      7.61299706	     19.69605847	      0.34376107	    -13.41856226	     -3.60497172	     -7.49999987	      7.54267278	     -3.02421128	    -14.43523022	    259.45054549	   -124.25227404	    238.40410168	     18.03192820	     41.07481280	    316.57091160	   -128.43979691	    281.52544164	     25.27631515	     35.11694207
